<svg xmlns="http://www.w3.org/2000/svg" width="137" height="120.081" viewBox="0 0 137 120.081">
  <path id="합치기_4" data-name="합치기 4" d="M68.866,120.081h0c-.007-.061-.62-6.252-1.954-14.028-.161-.943-.33-1.886-.5-2.8.8.019,1.623.03,2.455.03s1.645-.01,2.455-.03c-.167.9-.335,1.841-.5,2.8-1.35,7.874-1.948,13.967-1.954,14.028h0ZM41.837,96.8A100.073,100.073,0,0,1,30.2,93.508a78.233,78.233,0,0,1-10.137-4.356A56.368,56.368,0,0,1,11.7,83.873a38.009,38.009,0,0,1-6.316-6.059,25.489,25.489,0,0,1-3.992-6.7A19.6,19.6,0,0,1,0,63.929a20,20,0,0,1,2.133-8.867A29.243,29.243,0,0,1,8.18,47.011a48.509,48.509,0,0,1,9.431-6.96A74.8,74.8,0,0,1,29.9,34.458,44.842,44.842,0,0,0,23.236,38.7a30.385,30.385,0,0,0-5.029,4.871A17.66,17.66,0,0,0,13.92,54.736,17.659,17.659,0,0,0,18.209,65.9a30.393,30.393,0,0,0,5.032,4.873,44.906,44.906,0,0,0,6.665,4.245,69.984,69.984,0,0,0,17.349,6.147A98.117,98.117,0,0,0,68.5,83.42a98.116,98.116,0,0,0,21.245-2.254,69.984,69.984,0,0,0,17.349-6.147,44.905,44.905,0,0,0,6.665-4.245,30.394,30.394,0,0,0,5.032-4.873,17.659,17.659,0,0,0,4.289-11.165,17.656,17.656,0,0,0-4.287-11.163,30.385,30.385,0,0,0-5.029-4.871,44.819,44.819,0,0,0-6.662-4.244,74.665,74.665,0,0,1,12.287,5.593,48.487,48.487,0,0,1,9.431,6.96,29.253,29.253,0,0,1,6.046,8.051A20,20,0,0,1,137,63.929a19.6,19.6,0,0,1-1.391,7.189,25.49,25.49,0,0,1-3.992,6.7,37.986,37.986,0,0,1-6.316,6.059,56.343,56.343,0,0,1-8.364,5.279A78.278,78.278,0,0,1,106.8,93.508,100.039,100.039,0,0,1,95.163,96.8,124.225,124.225,0,0,1,68.5,99.6,124.229,124.229,0,0,1,41.837,96.8ZM59.814,79.61a51.867,51.867,0,0,0-4.667-8.42,45.988,45.988,0,0,0-5.3-6.417,31.069,31.069,0,0,0-5.8-4.728,31.483,31.483,0,0,0,5.8-4.73,45.932,45.932,0,0,0,5.3-6.417A52.2,52.2,0,0,0,60.3,39.329a90.489,90.489,0,0,0,3.955-12.478c.966-3.879,1.859-8.191,2.652-12.815C68.253,6.217,68.86.062,68.866,0c.007.059.606,6.18,1.954,14.035.793,4.624,1.686,8.936,2.653,12.815a90.347,90.347,0,0,0,3.955,12.478A52.136,52.136,0,0,0,82.586,48.9a45.9,45.9,0,0,0,5.3,6.417,31.1,31.1,0,0,0,5.8,4.728,31.733,31.733,0,0,0-5.8,4.729,45.974,45.974,0,0,0-5.3,6.417,51.787,51.787,0,0,0-4.667,8.42,67.472,67.472,0,0,1-18.106,0Zm5.02-25.154a37.155,37.155,0,0,1-4.8,5.329l.007.005a37.052,37.052,0,0,1,4.794,5.324A40.3,40.3,0,0,1,68.866,73.1l0-.016A40.655,40.655,0,0,1,72.9,65.114a37.2,37.2,0,0,1,4.8-5.329l-.007-.005A37,37,0,0,1,72.9,54.456c-2.181-3.007-4.017-9.6-4.034-9.669C68.79,45.06,66.984,51.489,64.833,54.456ZM86.414,25.622a10.222,10.222,0,0,0-4.136-4.654,10.218,10.218,0,0,0,4.136-4.654,34.787,34.787,0,0,0,2.178-8.836,34.771,34.771,0,0,0,2.178,8.836,10.218,10.218,0,0,0,4.135,4.654,10.223,10.223,0,0,0-4.135,4.654,34.779,34.779,0,0,0-2.178,8.836A34.8,34.8,0,0,0,86.414,25.622Z" fill="#fff"/>
</svg>
